<?xml version="1.0" standalone="no"?><!-- Generator: Gravit.io --><svg xmlns="http://www.w3.org/2000/svg" xmlns:xlink="http://www.w3.org/1999/xlink" style="isolation:isolate" viewBox="0 0 500 60.17" width="500" height="60.17"><defs><clipPath id="_clipPath_zVJdNqd8lcw8zwuOJVKgjIZhCvNOasRt"><rect width="500" height="60.17"/></clipPath></defs><g clip-path="url(#_clipPath_zVJdNqd8lcw8zwuOJVKgjIZhCvNOasRt)"><path d=" M 212.516 28.214 L 212.516 45.329 L 212.516 45.329 Q 214.12 49.073 217.196 52.148 L 217.196 52.148 L 217.196 52.148 Q 223.547 58.5 232.573 58.5 L 232.573 58.5 L 232.573 58.5 Q 241.598 58.5 247.95 52.148 L 247.95 52.148 L 247.95 52.148 Q 254.301 45.797 254.301 36.771 L 254.301 36.771 L 254.301 36.771 Q 254.301 27.746 247.95 21.394 L 247.95 21.394 L 247.95 21.394 Q 241.598 15.043 232.573 15.043 L 232.573 15.043 L 232.573 15.043 Q 223.547 15.043 217.196 21.394 L 217.196 21.394 L 217.196 21.394 Q 214.12 24.47 212.516 28.214 L 212.516 28.214 Z  M 210.844 58.5 L 210.844 3.343 L 212.516 3.343 L 212.516 24.603 L 212.516 24.603 Q 213.986 22.263 216.059 20.191 L 216.059 20.191 L 216.059 20.191 Q 222.878 13.371 232.573 13.371 L 232.573 13.371 L 232.573 13.371 Q 242.267 13.371 249.12 20.224 L 249.12 20.224 L 249.12 20.224 Q 255.973 27.077 255.973 36.771 L 255.973 36.771 L 255.973 36.771 Q 255.973 46.466 249.12 53.318 L 249.12 53.318 L 249.12 53.318 Q 242.267 60.171 232.573 60.171 L 232.573 60.171 L 232.573 60.171 Q 222.878 60.171 216.059 53.285 L 216.059 53.285 L 216.059 53.285 Q 213.986 51.212 212.516 48.939 L 212.516 48.939 L 212.516 58.5 L 210.844 58.5 Z  M 306.115 15.043 L 306.115 58.5 L 304.444 58.5 L 304.444 48.939 L 304.444 48.939 Q 302.973 51.279 300.967 53.285 L 300.967 53.285 L 300.967 53.285 Q 294.081 60.171 284.387 60.171 L 284.387 60.171 L 284.387 60.171 Q 274.692 60.171 267.84 53.318 L 267.84 53.318 L 267.84 53.318 Q 260.987 46.466 260.987 36.771 L 260.987 36.771 L 260.987 36.771 Q 260.987 27.077 267.84 20.224 L 267.84 20.224 L 267.84 20.224 Q 274.692 13.371 284.387 13.371 L 284.387 13.371 L 284.387 13.371 Q 294.081 13.371 300.967 20.191 L 300.967 20.191 L 300.967 20.191 Q 302.973 22.263 304.444 24.603 L 304.444 24.603 L 304.444 15.043 L 306.115 15.043 Z  M 304.444 45.329 L 304.444 45.329 L 304.444 28.214 L 304.444 28.214 Q 302.839 24.47 299.764 21.394 L 299.764 21.394 L 299.764 21.394 Q 293.412 15.043 284.387 15.043 L 284.387 15.043 L 284.387 15.043 Q 275.361 15.043 269.01 21.394 L 269.01 21.394 L 269.01 21.394 Q 262.658 27.746 262.658 36.771 L 262.658 36.771 L 262.658 36.771 Q 262.658 45.797 269.01 52.148 L 269.01 52.148 L 269.01 52.148 Q 275.361 58.5 284.387 58.5 L 284.387 58.5 L 284.387 58.5 Q 293.412 58.5 299.764 52.148 L 299.764 52.148 L 299.764 52.148 Q 302.839 49.073 304.444 45.329 Z  M 319.487 36.704 L 319.487 36.704 L 319.487 58.5 L 317.815 58.5 L 317.815 15.043 L 319.487 15.043 L 319.487 28.214 L 319.487 28.214 Q 321.091 24.47 324.167 21.394 L 324.167 21.394 L 324.167 21.394 Q 330.518 15.043 339.544 15.043 L 339.544 15.043 L 339.544 16.714 L 339.544 16.714 Q 331.186 16.714 325.303 22.598 L 325.303 22.598 L 325.303 22.598 Q 319.487 28.481 319.487 36.704 Z  M 347.901 36.704 L 347.901 36.704 L 347.901 58.5 L 346.229 58.5 L 346.229 15.043 L 347.901 15.043 L 347.901 28.214 L 347.901 28.214 Q 349.505 24.47 352.581 21.394 L 352.581 21.394 L 352.581 21.394 Q 358.932 15.043 367.958 15.043 L 367.958 15.043 L 367.958 16.714 L 367.958 16.714 Q 359.601 16.714 353.717 22.598 L 353.717 22.598 L 353.717 22.598 Q 347.901 28.481 347.901 36.704 Z  M 408.607 21.595 L 377.853 52.349 L 377.853 52.349 Q 384.137 58.5 393.029 58.5 L 393.029 58.5 L 393.029 58.5 Q 401.854 58.5 408.072 52.483 L 408.072 52.483 L 409.208 53.686 L 409.208 53.686 Q 402.456 60.171 393.029 60.171 L 393.029 60.171 L 393.029 60.171 Q 383.335 60.171 376.482 53.318 L 376.482 53.318 L 376.482 53.318 Q 369.629 46.466 369.629 36.771 L 369.629 36.771 L 369.629 36.771 Q 369.629 27.077 376.482 20.224 L 376.482 20.224 L 376.482 20.224 Q 383.335 13.371 393.029 13.371 L 393.029 13.371 L 393.029 13.371 Q 402.723 13.371 409.61 20.191 L 409.61 20.191 L 409.61 20.191 Q 409.676 20.324 409.81 20.458 L 409.81 20.458 L 408.607 21.595 Z  M 376.716 51.145 L 407.403 20.458 L 407.403 20.458 Q 401.386 15.043 393.029 15.043 L 393.029 15.043 L 393.029 15.043 Q 384.003 15.043 377.652 21.394 L 377.652 21.394 L 377.652 21.394 Q 371.301 27.746 371.301 36.771 L 371.301 36.771 L 371.301 36.771 Q 371.301 45.128 376.716 51.145 L 376.716 51.145 Z  M 416.429 15.043 L 418.1 15.043 L 418.1 58.5 L 416.429 58.5 L 416.429 15.043 Z  M 416.429 0 L 418.1 0 L 418.1 5.014 L 416.429 5.014 L 416.429 0 Z  M 431.472 36.704 L 431.472 36.704 L 431.472 58.5 L 429.8 58.5 L 429.8 15.043 L 431.472 15.043 L 431.472 28.214 L 431.472 28.214 Q 433.076 24.47 436.152 21.394 L 436.152 21.394 L 436.152 21.394 Q 442.503 15.043 451.529 15.043 L 451.529 15.043 L 451.529 16.714 L 451.529 16.714 Q 443.172 16.714 437.288 22.598 L 437.288 22.598 L 437.288 22.598 Q 431.472 28.481 431.472 36.704 Z  M 476.6 13.371 L 476.6 13.371 Q 486.294 13.371 493.147 20.224 L 493.147 20.224 L 493.147 20.224 Q 500 27.077 500 36.771 L 500 36.771 L 500 36.771 Q 500 46.466 493.147 53.318 L 493.147 53.318 L 493.147 53.318 Q 486.294 60.171 476.6 60.171 L 476.6 60.171 L 476.6 60.171 Q 466.906 60.171 460.053 53.318 L 460.053 53.318 L 460.053 53.318 Q 453.2 46.466 453.2 36.771 L 453.2 36.771 L 453.2 36.771 Q 453.2 27.077 460.053 20.224 L 460.053 20.224 L 460.053 20.224 Q 466.906 13.371 476.6 13.371 L 476.6 13.371 Z  M 476.6 15.043 L 476.6 15.043 L 476.6 15.043 Q 467.574 15.043 461.223 21.394 L 461.223 21.394 L 461.223 21.394 Q 454.872 27.746 454.872 36.771 L 454.872 36.771 L 454.872 36.771 Q 454.872 45.797 461.223 52.148 L 461.223 52.148 L 461.223 52.148 Q 467.574 58.5 476.6 58.5 L 476.6 58.5 L 476.6 58.5 Q 485.626 58.5 491.977 52.148 L 491.977 52.148 L 491.977 52.148 Q 498.329 45.797 498.329 36.771 L 498.329 36.771 L 498.329 36.771 Q 498.329 27.746 491.977 21.394 L 491.977 21.394 L 491.977 21.394 Q 485.626 15.043 476.6 15.043 Z  M 1.671 28.214 L 1.671 45.329 L 1.671 45.329 Q 3.276 49.073 6.351 52.148 L 6.351 52.148 L 6.351 52.148 Q 12.703 58.5 21.728 58.5 L 21.728 58.5 L 21.728 58.5 Q 30.754 58.5 37.106 52.148 L 37.106 52.148 L 37.106 52.148 Q 43.457 45.797 43.457 36.771 L 43.457 36.771 L 43.457 36.771 Q 43.457 27.746 37.106 21.394 L 37.106 21.394 L 37.106 21.394 Q 30.754 15.043 21.728 15.043 L 21.728 15.043 L 21.728 15.043 Q 12.703 15.043 6.351 21.394 L 6.351 21.394 L 6.351 21.394 Q 3.276 24.47 1.671 28.214 L 1.671 28.214 Z  M 0 58.5 L 0 3.343 L 1.671 3.343 L 1.671 24.603 L 1.671 24.603 Q 3.142 22.263 5.215 20.191 L 5.215 20.191 L 5.215 20.191 Q 12.034 13.371 21.728 13.371 L 21.728 13.371 L 21.728 13.371 Q 31.423 13.371 38.276 20.224 L 38.276 20.224 L 38.276 20.224 Q 45.128 27.077 45.128 36.771 L 45.128 36.771 L 45.128 36.771 Q 45.128 46.466 38.276 53.318 L 38.276 53.318 L 38.276 53.318 Q 31.423 60.171 21.728 60.171 L 21.728 60.171 L 21.728 60.171 Q 12.034 60.171 5.215 53.285 L 5.215 53.285 L 5.215 53.285 Q 3.142 51.212 1.671 48.939 L 1.671 48.939 L 1.671 58.5 L 0 58.5 Z  M 56.828 36.704 L 56.828 36.704 L 56.828 58.5 L 55.157 58.5 L 55.157 15.043 L 56.828 15.043 L 56.828 28.214 L 56.828 28.214 Q 58.433 24.47 61.508 21.394 L 61.508 21.394 L 61.508 21.394 Q 67.86 15.043 76.885 15.043 L 76.885 15.043 L 76.885 16.714 L 76.885 16.714 Q 68.528 16.714 62.645 22.598 L 62.645 22.598 L 62.645 22.598 Q 56.828 28.481 56.828 36.704 Z  M 81.9 15.043 L 83.571 15.043 L 83.571 58.5 L 81.9 58.5 L 81.9 15.043 Z  M 81.9 0 L 83.571 0 L 83.571 5.014 L 81.9 5.014 L 81.9 0 Z  M 135.385 15.043 L 135.385 58.5 L 133.714 58.5 L 133.714 48.939 L 133.714 48.939 Q 132.243 51.279 130.237 53.285 L 130.237 53.285 L 130.237 53.285 Q 123.351 60.171 113.657 60.171 L 113.657 60.171 L 113.657 60.171 Q 103.962 60.171 97.11 53.318 L 97.11 53.318 L 97.11 53.318 Q 90.257 46.466 90.257 36.771 L 90.257 36.771 L 90.257 36.771 Q 90.257 27.077 97.11 20.224 L 97.11 20.224 L 97.11 20.224 Q 103.962 13.371 113.657 13.371 L 113.657 13.371 L 113.657 13.371 Q 123.351 13.371 130.237 20.191 L 130.237 20.191 L 130.237 20.191 Q 132.243 22.263 133.714 24.603 L 133.714 24.603 L 133.714 15.043 L 135.385 15.043 Z  M 133.714 45.329 L 133.714 45.329 L 133.714 28.214 L 133.714 28.214 Q 132.109 24.47 129.034 21.394 L 129.034 21.394 L 129.034 21.394 Q 122.682 15.043 113.657 15.043 L 113.657 15.043 L 113.657 15.043 Q 104.631 15.043 98.28 21.394 L 98.28 21.394 L 98.28 21.394 Q 91.928 27.746 91.928 36.771 L 91.928 36.771 L 91.928 36.771 Q 91.928 45.797 98.28 52.148 L 98.28 52.148 L 98.28 52.148 Q 104.631 58.5 113.657 58.5 L 113.657 58.5 L 113.657 58.5 Q 122.682 58.5 129.034 52.148 L 129.034 52.148 L 129.034 52.148 Q 132.109 49.073 133.714 45.329 Z  M 145.414 58.5 L 145.414 14.976 L 147.085 14.976 L 147.085 24.536 L 147.085 24.536 Q 148.556 21.929 150.762 19.656 L 150.762 19.656 L 150.762 19.656 Q 157.114 13.305 166.139 13.305 L 166.139 13.305 L 166.139 13.305 Q 175.165 13.305 181.516 19.656 L 181.516 19.656 L 181.516 19.656 Q 187.868 26.007 187.868 35.033 L 187.868 35.033 L 187.868 58.5 L 186.196 58.5 L 186.196 35.033 L 186.196 35.033 Q 186.196 26.743 180.313 20.859 L 180.313 20.859 L 180.313 20.859 Q 174.429 14.976 166.139 14.976 L 166.139 14.976 L 166.139 14.976 Q 157.849 14.976 151.966 20.859 L 151.966 20.859 L 151.966 20.859 Q 148.623 24.202 147.219 28.347 L 147.219 28.347 L 147.085 28.347 L 147.085 58.5 L 145.414 58.5 Z " fill-rule="evenodd" fill="rgb(255,255,255)"/></g></svg>