<?xml version="1.0" encoding="utf-8"?>
<!-- Generator: Adobe Illustrator 16.0.0, SVG Export Plug-In . SVG Version: 6.00 Build 0)  -->
<!DOCTYPE svg PUBLIC "-//W3C//DTD SVG 1.1//EN" "http://www.w3.org/Graphics/SVG/1.1/DTD/svg11.dtd">
<svg version="1.1" id="Capa_1" xmlns="http://www.w3.org/2000/svg" xmlns:xlink="http://www.w3.org/1999/xlink" x="0px" y="0px"
	 width="699.854px" height="315.576px" viewBox="0 0 699.854 315.576" enable-background="new 0 0 699.854 315.576"
	 xml:space="preserve">
<g>
	<g>
		<path fill="#FFFFFF" d="M29.325,251.898c-8.794,0-16.301,3.094-22.487,9.279C4.958,263.059,3,265.059,2,267.182v-29.394H0v75h2
			v-12.493c1,2.063,2.958,4.033,4.838,5.912c6.186,6.247,13.684,9.369,22.479,9.369c8.792,0,16.303-3.106,22.52-9.323
			c6.215-6.216,9.325-13.721,9.325-22.516c0-8.792-3.107-16.298-9.322-22.515C45.623,255.008,38.119,251.898,29.325,251.898z
			 M50.248,304.66c-5.762,5.764-12.735,8.643-20.923,8.643c-8.187,0-15.18-2.879-20.94-8.643C5.596,301.871,3,298.779,2,295.382
			v-23.288c1-3.396,3.596-6.488,6.385-9.279c5.76-5.76,12.745-8.643,20.932-8.643c8.187,0,15.166,2.883,20.927,8.643
			c5.762,5.764,8.644,12.736,8.644,20.923C58.888,291.925,56.01,298.9,50.248,304.66z"/>
		<path fill="#FFFFFF" d="M79,272.094v-18.306h-2v59h2v-29.142c0-7.459,2.493-13.857,7.77-19.193
			c5.335-5.336,12.23-8.006,19.23-8.006v-2.275c-8,0-15.017,2.883-20.778,8.643C82.432,265.605,80,268.698,79,272.094z"/>
		<rect x="114" y="232.788" fill="#FFFFFF" width="3" height="8"/>
		<rect x="114" y="253.788" fill="#FFFFFF" width="3" height="59"/>
		<path fill="#FFFFFF" d="M188,267.182c-2-2.123-3.334-4.123-5.154-6.004c-6.247-6.186-13.978-9.279-22.771-9.279
			c-8.794,0-16.404,3.109-22.621,9.324c-6.217,6.217-9.377,13.723-9.377,22.515c0,8.795,3.08,16.3,9.297,22.516
			c6.216,6.217,13.707,9.323,22.502,9.323c8.793,0,16.729-3.122,22.977-9.369c1.819-1.818,3.147-3.789,5.147-5.912v12.493h2v-59h-2
			V267.182z M188,295.382c-3,3.397-4.002,6.489-6.792,9.278c-5.761,5.764-12.947,8.643-21.133,8.643
			c-8.188,0-15.268-2.879-21.028-8.643c-5.763-5.76-8.696-12.735-8.696-20.923c0-8.187,2.854-15.159,8.616-20.923
			c5.76-5.76,12.721-8.643,20.909-8.643c8.188,0,15.577,2.883,21.34,8.643c2.788,2.791,3.784,5.884,6.784,9.279V295.382z"/>
		<path fill="#FFFFFF" d="M233.094,251.808c-8.188,0-15.246,2.881-21.007,8.642c-2.002,2.063-4.086,4.275-5.086,6.641v-13.302h-2v59
			h2v-41h0.349c1.273-4,3.426-6.91,6.459-9.943c5.337-5.336,11.766-7.886,19.286-7.886c7.519,0,13.756,2.731,19.092,8.067
			c5.338,5.338,7.814,11.827,7.814,19.347v31.415h3v-31.415c0-8.188-3.052-15.161-8.814-20.924
			C248.423,254.688,241.28,251.808,233.094,251.808z"/>
		<path fill="#FFFFFF" d="M339.253,251.898c-8.793,0-16.764,3.094-22.951,9.279c-1.879,1.881-3.302,3.881-5.302,6.004v-29.394h-2v75
			h2v-12.493c2,2.063,3.423,4.033,5.302,5.912c6.187,6.247,13.917,9.369,22.712,9.369c8.793,0,16.415-3.106,22.634-9.323
			c6.215-6.216,9.385-13.721,9.385-22.516c0-8.792-3.079-16.298-9.295-22.515C355.521,255.008,348.048,251.898,339.253,251.898z
			 M360.176,304.66c-5.761,5.764-12.735,8.643-20.923,8.643c-8.187,0-15.643-2.879-21.403-8.643c-2.79-2.789-4.85-5.881-6.85-9.278
			v-23.288c2-3.396,4.06-6.488,6.85-9.279c5.76-5.76,12.977-8.643,21.165-8.643c8.187,0,15.278,2.883,21.04,8.643
			c5.762,5.764,8.703,12.736,8.703,20.923C368.758,291.925,365.938,298.9,360.176,304.66z"/>
		<path fill="#FFFFFF" d="M439,267.182c-2-2.123-2.979-4.123-4.799-6.004c-6.246-6.186-13.801-9.279-22.593-9.279
			c-8.795,0-16.317,3.109-22.532,9.324c-6.219,6.217-9.333,13.723-9.333,22.515c0,8.795,3.103,16.3,9.319,22.516
			c6.217,6.217,13.719,9.323,22.513,9.323c8.792,0,16.379-3.122,22.626-9.369c1.819-1.818,2.799-3.789,4.799-5.912v12.493h2v-59h-2
			V267.182z M439,295.382c-2,3.397-3.646,6.489-6.436,9.278c-5.762,5.764-12.77,8.643-20.956,8.643
			c-8.188,0-15.181-2.879-20.94-8.643c-5.764-5.76-8.651-12.735-8.651-20.923c0-8.187,2.877-15.159,8.64-20.923
			c5.76-5.76,12.732-8.643,20.919-8.643c8.188,0,15.228,2.883,20.989,8.643c2.789,2.791,4.436,5.884,6.436,9.279V295.382z"/>
		<path fill="#FFFFFF" d="M461,272.094v-18.306h-2v59h2v-29.142c0-7.459,2.494-13.857,7.77-19.193
			c5.334-5.336,11.23-8.006,19.23-8.006v-2.275c-9,0-15.016,2.883-20.777,8.643C464.434,265.605,462,268.698,461,272.094z"/>
		<path fill="#FFFFFF" d="M521,254.172c-7,0-15.016,2.883-20.777,8.643c-2.789,2.791-4.223,5.884-6.223,9.279v-18.306h-2v59h2
			v-29.142c0-7.459,2.492-13.857,7.77-19.193c5.336-5.336,12.23-8.006,19.23-8.006V254.172z"/>
		<path fill="#FFFFFF" d="M576.228,261.542c-0.122-0.122-0.214-0.242-0.273-0.364c-6.246-6.186-13.767-9.279-22.56-9.279
			c-8.794,0-16.3,3.109-22.516,9.324c-6.218,6.217-9.324,13.723-9.324,22.515c0,8.795,3.106,16.3,9.324,22.516
			c6.216,6.217,13.722,9.323,22.516,9.323c8.55,0,15.889-2.939,22.014-8.823l-1.545-1.638c-5.642,5.459-12.464,8.188-20.469,8.188
			c-8.066,0-14.95-2.789-20.651-8.369l41.846-41.846L576.228,261.542z M531.198,303.297c-4.914-5.459-7.37-11.977-7.37-19.56
			c0-8.187,2.881-15.159,8.644-20.923c5.76-5.76,12.735-8.643,20.923-8.643c7.579,0,14.101,2.457,19.558,7.37L531.198,303.297z"/>
		<rect x="587" y="232.788" fill="#FFFFFF" width="2" height="8"/>
		<rect x="587" y="253.788" fill="#FFFFFF" width="2" height="59"/>
		<path fill="#FFFFFF" d="M637,254.172c-8,0-15.516,2.883-21.277,8.643c-2.789,2.791-4.723,5.884-6.723,9.279v-18.306h-2v59h2
			v-29.142c0-7.459,2.994-13.857,8.27-19.193c5.336-5.336,11.73-8.006,19.73-8.006V254.172z"/>
		<path fill="#FFFFFF" d="M690.53,261.223c-6.218-6.215-13.723-9.324-22.516-9.324c-8.795,0-16.299,3.109-22.515,9.324
			c-6.217,6.217-9.325,13.723-9.325,22.515c0,8.795,3.108,16.3,9.325,22.516c6.216,6.217,13.72,9.323,22.515,9.323
			c8.793,0,16.298-3.106,22.516-9.323c6.215-6.216,9.324-13.721,9.324-22.516C699.854,274.945,696.745,267.439,690.53,261.223z
			 M688.938,304.66c-5.763,5.764-12.735,8.643-20.923,8.643c-8.187,0-15.161-2.879-20.923-8.643
			c-5.763-5.76-8.642-12.735-8.642-20.923c0-8.187,2.879-15.159,8.642-20.923c5.762-5.76,12.736-8.643,20.923-8.643
			c8.188,0,15.16,2.883,20.923,8.643c5.762,5.764,8.643,12.736,8.643,20.923C697.58,291.925,694.699,298.9,688.938,304.66z"/>
	</g>
	<g>
		<g>
			<path fill="#FFFFFF" d="M301.11,69.889h1.772V92.42c1.038-1.654,2.29-3.213,3.755-4.678c4.817-4.816,10.651-7.227,17.5-7.227
				s12.693,2.422,17.536,7.262c4.841,4.844,7.262,10.689,7.262,17.537c0,6.85-2.421,12.695-7.262,17.535
				c-4.843,4.844-10.688,7.264-17.536,7.264s-12.683-2.434-17.5-7.299c-1.465-1.463-2.717-2.998-3.755-4.605v10.133h-1.772V69.889z
				 M302.883,114.383c1.133,2.646,2.785,5.055,4.959,7.229c4.486,4.486,9.919,6.73,16.296,6.73c6.376,0,11.808-2.244,16.296-6.73
				c4.486-4.488,6.731-9.92,6.731-16.297s-2.245-11.809-6.731-16.297c-4.488-4.486-9.92-6.73-16.296-6.73
				c-6.377,0-11.81,2.244-16.296,6.73c-2.174,2.174-3.826,4.582-4.959,7.227V114.383z"/>
			<path fill="#FFFFFF" d="M359.209,69.889h1.771V92.42c1.039-1.654,2.289-3.213,3.756-4.678c4.816-4.816,10.65-7.227,17.5-7.227
				c6.848,0,12.693,2.422,17.535,7.262c4.842,4.844,7.262,10.689,7.262,17.537c0,6.85-2.42,12.695-7.262,17.535
				c-4.842,4.844-10.688,7.264-17.535,7.264c-6.85,0-12.684-2.434-17.5-7.299c-1.467-1.463-2.717-2.998-3.756-4.605v10.133h-1.771
				V69.889z M360.98,114.383c1.133,2.646,2.785,5.055,4.959,7.229c4.486,4.486,9.92,6.73,16.297,6.73
				c6.375,0,11.807-2.244,16.295-6.73c4.486-4.488,6.732-9.92,6.732-16.297s-2.246-11.809-6.732-16.297
				c-4.488-4.486-9.92-6.73-16.295-6.73c-6.377,0-11.811,2.244-16.297,6.73c-2.174,2.174-3.826,4.582-4.959,7.227V114.383z"/>
		</g>
		<path fill="#FFFFFF" d="M350,2.828L447.172,100L350,197.172L252.829,100L350,2.828 M350,0L250,100l100,100l100-100L350,0L350,0z"
			/>
	</g>
</g>
</svg>
